<?xml version="1.0" encoding="utf-8"?>
<!-- Generator: Adobe Illustrator 22.0.1, SVG Export Plug-In . SVG Version: 6.00 Build 0)  -->
<svg version="1.1" id="Layer_1" xmlns="http://www.w3.org/2000/svg" xmlns:xlink="http://www.w3.org/1999/xlink" x="0px" y="0px"
	 viewBox="0 0 24 24" style="enable-background:new 0 0 24 24;" xml:space="preserve">
<style type="text/css">
	.st0{fill:none;stroke:#00735B;stroke-width:2;stroke-miterlimit:10;}
</style>
<path class="st0" d="M12,10c-1.1,0-2-0.9-2-2s0.9-2,2-2s2,0.9,2,2S13.1,10,12,10 M12,5c-1.7,0-3,1.3-3,3s1.3,3,3,3s3-1.3,3-3
	S13.7,5,12,5 M5,7.6C5,4.1,8.3,1,12,1s7,3.1,7,6.6c0,3.5-2.6,7.5-7,14.5C7.5,15.1,5,11.1,5,7.6"/>
</svg>
